<svg width="2645" height="1051" xmlns="http://www.w3.org/2000/svg" xmlns:xlink="http://www.w3.org/1999/xlink" xml:space="preserve" overflow="hidden"><defs><clipPath id="clip0"><rect x="250" y="1368" width="2645" height="1051"/></clipPath></defs><g clip-path="url(#clip0)" transform="translate(-250 -1368)"><path d="M2132 1495.01C2132 1424.87 2188.87 1368 2259.01 1368L2767.05 1368C2837.2 1368 2894.06 1424.87 2894.06 1495.01L2894.06 2167.99C2894.06 2238.13 2837.2 2295 2767.05 2295L2259.01 2295C2188.87 2295 2132 2238.13 2132 2167.99Z" fill="#F5F5F5" fill-rule="evenodd"/><path d="M1021 1522.5C1021 1437.17 1090.17 1368 1175.5 1368L1966.5 1368C2051.83 1368 2121 1437.17 2121 1522.5L2121 2140.5C2121 2225.83 2051.83 2295 1966.5 2295L1175.5 2295C1090.17 2295 1021 2225.83 1021 2140.5Z" fill="#F5F5F5" fill-rule="evenodd"/><path d="M250 1494.84C250 1424.79 306.786 1368 376.836 1368L884.164 1368C954.214 1368 1011 1424.79 1011 1494.84L1011 2168.16C1011 2238.21 954.214 2295 884.164 2295L376.836 2295C306.786 2295 250 2238.21 250 2168.16Z" fill="#F5F5F5" fill-rule="evenodd"/><path d="M541.5 1808.5 541.5 1429.5 728.5 1505.3 728.5 1732.7Z" stroke="#000000" stroke-width="4.58333" stroke-miterlimit="8" fill="#0B3041" fill-rule="evenodd"/><text fill="#FFFFFF" font-family="Segoe UI,Segoe UI_MSFontService,sans-serif" font-weight="400" font-size="37" transform="matrix(1 -2.44929e-16 2.44929e-16 1 584.495 1589)">Image </text><text fill="#FFFFFF" font-family="Segoe UI,Segoe UI_MSFontService,sans-serif" font-weight="400" font-size="37" transform="matrix(1 -2.44929e-16 2.44929e-16 1 569.301 1633)">Encoder</text><text fill="#FFFFFF" font-family="Segoe UI,Segoe UI_MSFontService,sans-serif" font-weight="400" font-size="37" transform="matrix(1 -2.44929e-16 2.44929e-16 1 544.665 1677)">(</text><text fill="#FFFFFF" font-family="Segoe UI,Segoe UI_MSFontService,sans-serif" font-weight="400" font-size="37" transform="matrix(1 -2.44929e-16 2.44929e-16 1 555.551 1677)">DenseNet</text><text fill="#FFFFFF" font-family="Segoe UI,Segoe UI_MSFontService,sans-serif" font-weight="400" font-size="37" transform="matrix(1 -2.44929e-16 2.44929e-16 1 714.249 1677)">)</text><path d="M541.5 2234.5 541.5 1855.5 728.5 1931.3 728.5 2158.7Z" stroke="#000000" stroke-width="4.58333" stroke-miterlimit="8" fill="#0B3041" fill-rule="evenodd"/><text fill="#FFFFFF" font-family="Segoe UI,Segoe UI_MSFontService,sans-serif" font-weight="400" font-size="37" transform="matrix(1 -2.44929e-16 2.44929e-16 1 560.707 2014)">Heatmap</text><text fill="#FFFFFF" font-family="Segoe UI,Segoe UI_MSFontService,sans-serif" font-weight="400" font-size="37" transform="matrix(1 -2.44929e-16 2.44929e-16 1 569.301 2058)">Encoder</text><text fill="#FFFFFF" font-family="Segoe UI,Segoe UI_MSFontService,sans-serif" font-weight="400" font-size="37" transform="matrix(1 -2.44929e-16 2.44929e-16 1 569.026 2102)">(Simple)</text><text font-family="Segoe UI,Segoe UI_MSFontService,sans-serif" font-weight="400" font-size="32" transform="matrix(1 0 0 1 284.429 1745)">[B,3,224,224]</text><text font-family="Segoe UI,Segoe UI_MSFontService,sans-serif" font-weight="400" font-size="32" transform="matrix(1 0 0 1 276.421 2194)">[B,15,224,224]</text><text font-family="Segoe UI,Segoe UI_MSFontService,sans-serif" font-weight="400" font-size="32" transform="matrix(1 0 0 1 1262.19 2147)">[B,1,7,7]*3</text><rect x="1035.5" y="1733.5" width="120" height="192" stroke="#000000" stroke-width="4.58333" stroke-miterlimit="8" fill="#0B3041"/><text fill="#FFFFFF" font-family="Segoe UI,Segoe UI_MSFontService,sans-serif" font-weight="400" font-size="37" transform="matrix(1 0 0 1 1052.58 1799)">Mask </text><text fill="#FFFFFF" font-family="Segoe UI,Segoe UI_MSFontService,sans-serif" font-weight="400" font-size="37" transform="matrix(1 0 0 1 1037.69 1843)">Genera</text><text fill="#FFFFFF" font-family="Segoe UI,Segoe UI_MSFontService,sans-serif" font-weight="400" font-size="37" transform="matrix(1 0 0 1 1071.76 1887)">tor</text><text font-family="Segoe UI,Segoe UI_MSFontService,sans-serif" font-weight="400" font-size="32" transform="matrix(1 0 0 1 816.778 2176)">[B,512,7,7]</text><text font-family="Segoe UI,Segoe UI_MSFontService,sans-serif" font-weight="400" font-size="32" transform="matrix(1 0 0 1 817.076 1745)">[B,512,7,7]</text><path d="M468 1617.85 527.113 1617.85 527.113 1620.15 468 1620.15ZM522.529 1609.83 540.863 1619 522.529 1628.17Z"/><path d="M500 2042.85 528 2042.85 528 2045.15 500 2045.15ZM523.416 2034.83 541.75 2044 523.416 2053.17Z"/><rect x="2672.5" y="1456.5" width="190" height="189" stroke="#000000" stroke-width="4.58333" stroke-miterlimit="8" fill="#FBD7AA"/><text font-family="Segoe UI,Segoe UI_MSFontService,sans-serif" font-weight="400" font-size="37" transform="matrix(1 0 0 1 2726.44 1521)">BBox</text><text font-family="Segoe UI,Segoe UI_MSFontService,sans-serif" font-weight="400" font-size="37" transform="matrix(1 0 0 1 2724.15 1565)">Head</text><text font-family="Segoe UI,Segoe UI_MSFontService,sans-serif" font-weight="400" font-size="37" transform="matrix(1 0 0 1 2720.71 1609)">(MLP)</text><rect x="1228.5" y="1732.5" width="189" height="189" stroke="#000000" stroke-width="4.58333" stroke-miterlimit="8" fill="#C8DFF1"/><text font-family="Segoe UI,Segoe UI_MSFontService,sans-serif" font-weight="400" font-size="37" transform="matrix(1 0 0 1 1246.32 1819)">Attention </text><text font-family="Segoe UI,Segoe UI_MSFontService,sans-serif" font-weight="400" font-size="37" transform="matrix(1 0 0 1 1231.69 1863)">Mask(Base)</text><rect x="1228.5" y="1927.5" width="189" height="190" stroke="#000000" stroke-width="4.58333" stroke-miterlimit="8" fill="#C8DFF1"/><text font-family="Segoe UI,Segoe UI_MSFontService,sans-serif" font-weight="400" font-size="37" transform="matrix(1 0 0 1 1246.32 2014)">Attention </text><text font-family="Segoe UI,Segoe UI_MSFontService,sans-serif" font-weight="400" font-size="37" transform="matrix(1 0 0 1 1243.73 2058)">Mask(Tip)</text><rect x="1228.5" y="1536.5" width="189" height="190" stroke="#000000" stroke-width="4.58333" stroke-miterlimit="8" fill="#C8DFF1"/><text font-family="Segoe UI,Segoe UI_MSFontService,sans-serif" font-weight="400" font-size="37" transform="matrix(1 0 0 1 1246.3 1623)">Attention </text><text font-family="Segoe UI,Segoe UI_MSFontService,sans-serif" font-weight="400" font-size="37" transform="matrix(1 0 0 1 1228.54 1667)">Mask</text><text font-family="Segoe UI,Segoe UI_MSFontService,sans-serif" font-weight="400" font-size="37" transform="matrix(1 0 0 1 1313.91 1667)">(</text><text font-family="Segoe UI,Segoe UI_MSFontService,sans-serif" font-weight="400" font-size="37" transform="matrix(1 0 0 1 1324.79 1667)">BBox</text><text font-family="Segoe UI,Segoe UI_MSFontService,sans-serif" font-weight="400" font-size="37" transform="matrix(1 0 0 1 1405.57 1667)">)</text><path d="M0-1.14583 112.48-1.14583 112.48 111.458 110.189 111.458 110.189 0 111.335 1.14583 0 1.14583ZM120.501 106.875 111.335 125.208 102.168 106.875Z" transform="matrix(1 0 0 -1 984 2050.21)"/><path d="M0.0381377-1.1452 58.7186 0.808993 58.6423 3.09939-0.0381377 1.1452ZM54.4047-7.35995 72.4228 2.41184 53.7945 10.9632Z" transform="matrix(1 0 0 -1 1155 1829.41)"/><path d="M0-1.14583 200.568-1.14583 200.568 40.0742 198.276 40.0742 198.276 0 199.422 1.14583 0 1.14583ZM208.589 35.4909 199.422 53.8242 190.255 35.4909Z" transform="matrix(1.83697e-16 1 1 -1.83697e-16 1174 1823)"/><path d="M1172.85 1822.62 1172.85 1629.85 1214.29 1629.85 1214.29 1632.15 1174 1632.15 1175.15 1631 1175.15 1822.62ZM1209.71 1621.83 1228.04 1631 1209.71 1640.17Z"/><path d="M0 0 124.31 0 124.31 147.233 396.815 147.233" stroke="#000000" stroke-width="2.29167" stroke-miterlimit="8" fill="none" fill-rule="evenodd" transform="matrix(1 0 0 -1 984 1620.23)"/><rect x="1653.5" y="1732.5" width="190" height="189" stroke="#000000" stroke-width="4.58333" stroke-miterlimit="8" fill="#C8DFF1"/><text font-family="Segoe UI,Segoe UI_MSFontService,sans-serif" font-weight="400" font-size="32" transform="matrix(1 0 0 1 1663.67 1781)">Emphasized</text><text font-family="Segoe UI,Segoe UI_MSFontService,sans-serif" font-weight="400" font-size="32" transform="matrix(1 0 0 1 1704.05 1820)">Image </text><text font-family="Segoe UI,Segoe UI_MSFontService,sans-serif" font-weight="400" font-size="32" transform="matrix(1 0 0 1 1688.58 1858)">Features</text><text font-family="Segoe UI,Segoe UI_MSFontService,sans-serif" font-weight="400" font-size="32" transform="matrix(1 0 0 1 1705.77 1897)">(Base)</text><rect x="1653.5" y="1927.5" width="190" height="190" stroke="#000000" stroke-width="4.58333" stroke-miterlimit="8" fill="#C8DFF1"/><text font-family="Segoe UI,Segoe UI_MSFontService,sans-serif" font-weight="400" font-size="32" transform="matrix(1 0 0 1 1663.67 1976)">Emphasized</text><text font-family="Segoe UI,Segoe UI_MSFontService,sans-serif" font-weight="400" font-size="32" transform="matrix(1 0 0 1 1704.05 2015)">Image </text><text font-family="Segoe UI,Segoe UI_MSFontService,sans-serif" font-weight="400" font-size="32" transform="matrix(1 0 0 1 1688.58 2053)">Features</text><text font-family="Segoe UI,Segoe UI_MSFontService,sans-serif" font-weight="400" font-size="32" transform="matrix(1 0 0 1 1716.38 2092)">(Tip)</text><rect x="1653.5" y="1536.5" width="190" height="190" stroke="#000000" stroke-width="4.58333" stroke-miterlimit="8" fill="#C8DFF1"/><text font-family="Segoe UI,Segoe UI_MSFontService,sans-serif" font-weight="400" font-size="32" transform="matrix(1 0 0 1 1663.39 1585)">emphasized</text><text font-family="Segoe UI,Segoe UI_MSFontService,sans-serif" font-weight="400" font-size="32" transform="matrix(1 0 0 1 1704.07 1624)">Image </text><text font-family="Segoe UI,Segoe UI_MSFontService,sans-serif" font-weight="400" font-size="32" transform="matrix(1 0 0 1 1688.6 1662)">Features</text><text font-family="Segoe UI,Segoe UI_MSFontService,sans-serif" font-weight="400" font-size="32" transform="matrix(1 0 0 1 1702.92 1701)">(</text><text font-family="Segoe UI,Segoe UI_MSFontService,sans-serif" font-weight="400" font-size="32" transform="matrix(1 0 0 1 1712.66 1701)">BBox</text><text font-family="Segoe UI,Segoe UI_MSFontService,sans-serif" font-weight="400" font-size="32" transform="matrix(1 0 0 1 1783.13 1701)">)</text><path d="M1472.87 1608.73 1518.13 1653.27M1518.13 1608.73 1472.87 1653.27" stroke="#000000" stroke-width="4.58333" stroke-miterlimit="8" fill="none" fill-rule="evenodd"/><path d="M1463.5 1631C1463.5 1613.6 1477.83 1599.5 1495.5 1599.5 1513.17 1599.5 1527.5 1613.6 1527.5 1631 1527.5 1648.4 1513.17 1662.5 1495.5 1662.5 1477.83 1662.5 1463.5 1648.4 1463.5 1631Z" stroke="#000000" stroke-width="4.58333" stroke-miterlimit="8" fill="none" fill-rule="evenodd"/><path d="M1512.73 1804.73 1557.27 1849.27M1557.27 1804.73 1512.73 1849.27" stroke="#000000" stroke-width="4.58333" stroke-miterlimit="8" fill="none" fill-rule="evenodd"/><path d="M1503.5 1827C1503.5 1809.6 1517.6 1795.5 1535 1795.5 1552.4 1795.5 1566.5 1809.6 1566.5 1827 1566.5 1844.4 1552.4 1858.5 1535 1858.5 1517.6 1858.5 1503.5 1844.4 1503.5 1827Z" stroke="#000000" stroke-width="4.58333" stroke-miterlimit="8" fill="none" fill-rule="evenodd"/><path d="M1558.87 1999.87 1604.13 2045.13M1604.13 1999.87 1558.87 2045.13" stroke="#000000" stroke-width="4.58333" stroke-miterlimit="8" fill="none" fill-rule="evenodd"/><path d="M1549.5 2022.5C1549.5 2004.83 1563.83 1990.5 1581.5 1990.5 1599.17 1990.5 1613.5 2004.83 1613.5 2022.5 1613.5 2040.17 1599.17 2054.5 1581.5 2054.5 1563.83 2054.5 1549.5 2040.17 1549.5 2022.5Z" stroke="#000000" stroke-width="4.58333" stroke-miterlimit="8" fill="none" fill-rule="evenodd"/><path d="M1639.95 1632.54 1527 1632.15 1527 1629.85 1639.95 1630.25ZM1635.4 1622.21 1653.7 1631.45 1635.33 1640.55Z"/><path d="M13.7516-1.12564 87.2344-1.01772 87.2311 1.27395 13.7483 1.16603ZM18.3199 9.19358 0 0 18.3468-9.13973Z" transform="matrix(-1 0 0 1 1653.23 1823)"/><path d="M13.75-1.14571 38.9269-1.14547 38.9269 1.14619 13.75 1.14596ZM18.3332 9.16684 0 0 18.3334-9.1665Z" transform="matrix(-1 0 0 1 1652.93 2022)"/><path d="M1358 1473 1580.79 1473" stroke="#000000" stroke-width="2.29167" stroke-miterlimit="8" fill="none" fill-rule="evenodd"/><path d="M1417 1629.85 1451.02 1629.85 1451.02 1632.15 1417 1632.15ZM1446.43 1621.83 1464.77 1631 1446.43 1640.17Z"/><path d="M1417 1825.85 1488.83 1825.85 1488.83 1828.15 1417 1828.15ZM1484.24 1817.83 1502.58 1827 1484.24 1836.17Z"/><path d="M1417 2020.85 1535.81 2020.85 1535.81 2023.15 1417 2023.15ZM1531.22 2012.83 1549.56 2022 1531.22 2031.17Z"/><path d="M1496.15 1471 1496.15 1583.29 1493.85 1583.29 1493.85 1471ZM1504.17 1578.71 1495 1597.04 1485.83 1578.71Z"/><path d="M1537.15 1471 1537.15 1781.25 1534.85 1781.25 1534.85 1471ZM1545.17 1776.66 1536 1795 1526.83 1776.66Z"/><path d="M1582.15 1471 1582.25 1976.6 1579.96 1976.6 1579.85 1471ZM1590.27 1972.01 1581.11 1990.35 1571.94 1972.01Z"/><text font-family="Segoe UI,Segoe UI_MSFontService,sans-serif" font-weight="400" font-size="32" transform="matrix(1 0 0 1 1662.18 2145)">[B,512,7,7]*3</text><path d="M1070 2050 1070 2204.59" stroke="#000000" stroke-width="2.29167" stroke-miterlimit="8" fill="none" fill-rule="evenodd"/><rect x="1921.5" y="1536.5" width="189" height="189" stroke="#000000" stroke-width="4.58333" stroke-miterlimit="8" fill="#C8DFF1"/><text font-family="Segoe UI,Segoe UI_MSFontService,sans-serif" font-weight="400" font-size="37" transform="matrix(1 0 0 1 1962.69 1601)">Fusion </text><text font-family="Segoe UI,Segoe UI_MSFontService,sans-serif" font-weight="400" font-size="37" transform="matrix(1 0 0 1 1947.49 1645)">Features</text><text font-family="Segoe UI,Segoe UI_MSFontService,sans-serif" font-weight="400" font-size="37" transform="matrix(1 0 0 1 1964.11 1689)">(</text><text font-family="Segoe UI,Segoe UI_MSFontService,sans-serif" font-weight="400" font-size="37" transform="matrix(1 0 0 1 1974.99 1689)">BBox</text><text font-family="Segoe UI,Segoe UI_MSFontService,sans-serif" font-weight="400" font-size="37" transform="matrix(1 0 0 1 2055.78 1689)">)</text><path d="M1070 2203 1889.15 2203" stroke="#000000" stroke-width="2.29167" stroke-miterlimit="8" fill="none" fill-rule="evenodd"/><text font-family="Yu Mincho,Yu Mincho_MSFontService,sans-serif" font-weight="400" font-size="64" transform="matrix(1 0 0 1 394.937 2363)">(a)</text><text font-family="Yu Mincho,Yu Mincho_MSFontService,sans-serif" font-weight="400" font-size="64" transform="matrix(1 0 0 1 480.874 2363)">エンコーダ部</text><text font-family="Yu Mincho,Yu Mincho_MSFontService,sans-serif" font-weight="400" font-size="64" transform="matrix(1 0 0 1 1366.99 2363)">(b</text><text font-family="Yu Mincho,Yu Mincho_MSFontService,sans-serif" font-weight="400" font-size="64" transform="matrix(1 0 0 1 1430.01 2363)">)</text><text font-family="Yu Mincho,Yu Mincho_MSFontService,sans-serif" font-weight="400" font-size="64" transform="matrix(1 0 0 1 1457.51 2363)">特徴</text><text font-family="Yu Mincho,Yu Mincho_MSFontService,sans-serif" font-weight="400" font-size="64" transform="matrix(1 0 0 1 1585.84 2363)">統合</text><text font-family="Yu Mincho,Yu Mincho_MSFontService,sans-serif" font-weight="400" font-size="64" transform="matrix(1 0 0 1 1714.17 2363)">部</text><text font-family="Yu Mincho,Yu Mincho_MSFontService,sans-serif" font-weight="400" font-size="64" transform="matrix(1 0 0 1 2278.28 2363)">(c)</text><text font-family="Yu Mincho,Yu Mincho_MSFontService,sans-serif" font-weight="400" font-size="64" transform="matrix(1 0 0 1 2363.07 2363)">検出ヘッド部</text><rect x="279.5" y="1526.5" width="189" height="189" stroke="#000000" stroke-width="4.58333" stroke-miterlimit="8" fill="#C8DFF1"/><text font-family="Segoe UI,Segoe UI_MSFontService,sans-serif" font-weight="400" font-size="37" transform="matrix(1 0 0 1 313.361 1596)">Current</text><text font-family="Segoe UI,Segoe UI_MSFontService,sans-serif" font-weight="400" font-size="32" transform="matrix(1 0 0 1 344.299 1635)">RGB</text><text font-family="Segoe UI,Segoe UI_MSFontService,sans-serif" font-weight="400" font-size="32" transform="matrix(1 0 0 1 323.101 1674)">Images</text><rect x="257.5" y="1927.5" width="189" height="190" stroke="#000000" stroke-width="4.58333" stroke-miterlimit="8" fill="#C8DFF1"/><rect x="284.5" y="1951.5" width="189" height="189" stroke="#000000" stroke-width="4.58333" stroke-miterlimit="8" fill="#C8DFF1"/><rect x="311.5" y="1973.5" width="190" height="189" stroke="#000000" stroke-width="4.58333" stroke-miterlimit="8" fill="#C8DFF1"/><text font-family="Segoe UI,Segoe UI_MSFontService,sans-serif" font-weight="400" font-size="37" transform="matrix(1 0 0 1 372.269 2060)">Past</text><text font-family="Segoe UI,Segoe UI_MSFontService,sans-serif" font-weight="400" font-size="37" transform="matrix(1 0 0 1 324.144 2104)">Heatmap</text><text font-family="Segoe UI,Segoe UI_MSFontService,sans-serif" font-weight="400" font-size="37" transform="matrix(1 0 0 1 472.529 2104)">s</text><rect x="795.5" y="1526.5" width="189" height="189" stroke="#000000" stroke-width="4.58333" stroke-miterlimit="8" fill="#C8DFF1"/><text font-family="Segoe UI,Segoe UI_MSFontService,sans-serif" font-weight="400" font-size="37" transform="matrix(1 0 0 1 828.821 1593)">Current</text><text font-family="Segoe UI,Segoe UI_MSFontService,sans-serif" font-weight="400" font-size="37" transform="matrix(1 0 0 1 838.858 1637)">Image</text><text font-family="Segoe UI,Segoe UI_MSFontService,sans-serif" font-weight="400" font-size="32" transform="matrix(1 0 0 1 829.967 1676)">Feature</text><text font-family="Segoe UI,Segoe UI_MSFontService,sans-serif" font-weight="400" font-size="32" transform="matrix(1 0 0 1 934.81 1676)">s</text><rect x="795.5" y="1955.5" width="189" height="190" stroke="#000000" stroke-width="4.58333" stroke-miterlimit="8" fill="#C8DFF1"/><text font-family="Segoe UI,Segoe UI_MSFontService,sans-serif" font-weight="400" font-size="37" transform="matrix(1 0 0 1 855.473 2020)">Past</text><text font-family="Segoe UI,Segoe UI_MSFontService,sans-serif" font-weight="400" font-size="37" transform="matrix(1 0 0 1 815.071 2064)">Heatmap</text><text font-family="Segoe UI,Segoe UI_MSFontService,sans-serif" font-weight="400" font-size="37" transform="matrix(1 0 0 1 821.373 2108)">Feature</text><text font-family="Segoe UI,Segoe UI_MSFontService,sans-serif" font-weight="400" font-size="37" transform="matrix(1 0 0 1 941.685 2108)">s</text><path d="M730 1617.85 780.379 1617.85 780.379 1620.15 730 1620.15ZM775.796 1609.83 794.129 1619 775.796 1628.17Z"/><path d="M732 2048.85 781.233 2048.85 781.233 2051.15 732 2051.15ZM776.649 2040.83 794.983 2050 776.649 2059.17Z"/><rect x="2672.5" y="1725.5" width="190" height="189" stroke="#000000" stroke-width="4.58333" stroke-miterlimit="8" fill="#FBD7AA"/><text font-family="Segoe UI,Segoe UI_MSFontService,sans-serif" font-weight="400" font-size="37" transform="matrix(1 0 0 1 2729.58 1790)">Base</text><text font-family="Segoe UI,Segoe UI_MSFontService,sans-serif" font-weight="400" font-size="37" transform="matrix(1 0 0 1 2724.15 1834)">Head</text><text font-family="Segoe UI,Segoe UI_MSFontService,sans-serif" font-weight="400" font-size="37" transform="matrix(1 0 0 1 2720.71 1878)">(</text><text font-family="Segoe UI,Segoe UI_MSFontService,sans-serif" font-weight="400" font-size="37" transform="matrix(1 0 0 1 2731.59 1878)">MLP</text><text font-family="Segoe UI,Segoe UI_MSFontService,sans-serif" font-weight="400" font-size="37" transform="matrix(1 0 0 1 2802.06 1878)">)</text><rect x="2672.5" y="2001.5" width="190" height="189" stroke="#000000" stroke-width="4.58333" stroke-miterlimit="8" fill="#FBD7AA"/><text font-family="Segoe UI,Segoe UI_MSFontService,sans-serif" font-weight="400" font-size="37" transform="matrix(1 0 0 1 2741.61 2066)">Tip</text><text font-family="Segoe UI,Segoe UI_MSFontService,sans-serif" font-weight="400" font-size="37" transform="matrix(1 0 0 1 2724.15 2110)">Head</text><text font-family="Segoe UI,Segoe UI_MSFontService,sans-serif" font-weight="400" font-size="37" transform="matrix(1 0 0 1 2720.71 2154)">(</text><text font-family="Segoe UI,Segoe UI_MSFontService,sans-serif" font-weight="400" font-size="37" transform="matrix(1 0 0 1 2731.59 2154)">MLP</text><text font-family="Segoe UI,Segoe UI_MSFontService,sans-serif" font-weight="400" font-size="37" transform="matrix(1 0 0 1 2802.06 2154)">)</text><rect x="1921.5" y="1732.5" width="189" height="189" stroke="#000000" stroke-width="4.58333" stroke-miterlimit="8" fill="#C8DFF1"/><text font-family="Segoe UI,Segoe UI_MSFontService,sans-serif" font-weight="400" font-size="37" transform="matrix(1 0 0 1 1962.69 1797)">Fusion </text><text font-family="Segoe UI,Segoe UI_MSFontService,sans-serif" font-weight="400" font-size="37" transform="matrix(1 0 0 1 1947.49 1841)">Features</text><text font-family="Segoe UI,Segoe UI_MSFontService,sans-serif" font-weight="400" font-size="37" transform="matrix(1 0 0 1 1967.27 1885)">(</text><text font-family="Segoe UI,Segoe UI_MSFontService,sans-serif" font-weight="400" font-size="37" transform="matrix(1 0 0 1 1978.16 1885)">Base</text><text font-family="Segoe UI,Segoe UI_MSFontService,sans-serif" font-weight="400" font-size="37" transform="matrix(1 0 0 1 2052.64 1885)">)</text><rect x="1921.5" y="1927.5" width="189" height="190" stroke="#000000" stroke-width="4.58333" stroke-miterlimit="8" fill="#C8DFF1"/><text font-family="Segoe UI,Segoe UI_MSFontService,sans-serif" font-weight="400" font-size="37" transform="matrix(1 0 0 1 1962.69 1992)">Fusion </text><text font-family="Segoe UI,Segoe UI_MSFontService,sans-serif" font-weight="400" font-size="37" transform="matrix(1 0 0 1 1947.49 2036)">Features</text><text font-family="Segoe UI,Segoe UI_MSFontService,sans-serif" font-weight="400" font-size="37" transform="matrix(1 0 0 1 1979.3 2080)">(</text><text font-family="Segoe UI,Segoe UI_MSFontService,sans-serif" font-weight="400" font-size="37" transform="matrix(1 0 0 1 1990.19 2080)">Tip</text><text font-family="Segoe UI,Segoe UI_MSFontService,sans-serif" font-weight="400" font-size="37" transform="matrix(1 0 0 1 2040.6 2080)">)</text><text font-family="Segoe UI,Segoe UI_MSFontService,sans-serif" font-weight="400" font-size="32" transform="matrix(1 0 0 1 2319.56 2218)">[B</text><text font-family="Segoe UI,Segoe UI_MSFontService,sans-serif" font-weight="400" font-size="32" transform="matrix(1 0 0 1 2347.63 2218)">,</text><text font-family="Segoe UI,Segoe UI_MSFontService,sans-serif" font-weight="400" font-size="32" transform="matrix(1 0 0 1 2354.51 2218)">51</text><text font-family="Segoe UI,Segoe UI_MSFontService,sans-serif" font-weight="400" font-size="32" transform="matrix(1 0 0 1 2388.88 2218)">2</text><text font-family="Segoe UI,Segoe UI_MSFontService,sans-serif" font-weight="400" font-size="32" transform="matrix(1 0 0 1 2406.07 2218)">,7,7]</text><text font-family="Segoe UI,Segoe UI_MSFontService,sans-serif" font-weight="400" font-size="32" transform="matrix(1 0 0 1 2463.94 2218)">*3</text><path d="M0.00652865-1.14581 64.4167-0.778817 64.4036 1.51281-0.00652865 1.14581ZM59.8791-8.82563 78.1599 0.445341 59.7746 9.5074Z" transform="matrix(1 0 0 -1 1843 1631.45)"/><path d="M0.000957621-1.14583 64.4109-1.092 64.409 1.19966-0.000957621 1.14583ZM59.8342-9.11666 78.1599 0.0653215 59.8189 9.21666Z" transform="matrix(1 0 0 -1 1843 1827.07)"/><path d="M0.000910004-1.14583 64.4108-1.09468 64.409 1.19699-0.000910004 1.14583ZM59.8339-9.11915 78.1599 0.0620735 59.8193 9.21418Z" transform="matrix(1 0 0 -1 1843 2022.06)"/><path d="M1849 1677.85 1906.59 1677.85 1906.59 1680.15 1849 1680.15ZM1902.01 1669.83 1920.34 1679 1902.01 1688.17Z"/><path d="M1869 1875.85 1906.54 1875.85 1906.54 1878.15 1869 1878.15ZM1901.96 1867.83 1920.29 1877 1901.96 1886.17Z"/><path d="M1891 2070.85 1906.77 2070.85 1906.77 2073.15 1891 2073.15ZM1902.19 2062.83 1920.52 2072 1902.19 2081.17Z"/><path d="M0 0 0.000360892 525.938" stroke="#000000" stroke-width="2.29167" stroke-miterlimit="8" fill="none" fill-rule="evenodd" transform="matrix(1 0 0 -1 1850 2204.94)"/><path d="M0 0 0.000360892 328.281" stroke="#000000" stroke-width="2.29167" stroke-miterlimit="8" fill="none" fill-rule="evenodd" transform="matrix(1 0 0 -1 1870 2204.28)"/><path d="M0 0 0.000360892 132.917" stroke="#000000" stroke-width="2.29167" stroke-miterlimit="8" fill="none" fill-rule="evenodd" transform="matrix(1 0 0 -1 1891 2204.92)"/><rect x="2540.5" y="1455.5" width="92.9998" height="191" stroke="#000000" stroke-width="4.58333" stroke-miterlimit="8" fill="#0B3041"/><text fill="#FFFFFF" font-family="Segoe UI,Segoe UI_MSFontService,sans-serif" font-weight="400" font-size="37" transform="matrix(1 0 0 1 2552.13 1565)">GAP</text><rect x="2180.5" y="1455.5" width="94.0002" height="191" stroke="#000000" stroke-width="4.58333" stroke-miterlimit="8" fill="#0B3041"/><text fill="#FFFFFF" font-family="Segoe UI,Segoe UI_MSFontService,sans-serif" font-weight="400" font-size="37" transform="matrix(1 0 0 1 2199.29 1543)">1*1</text><text fill="#FFFFFF" font-family="Segoe UI,Segoe UI_MSFontService,sans-serif" font-weight="400" font-size="37" transform="matrix(1 0 0 1 2185.54 1587)">Conv</text><rect x="2312.5" y="1456.5" width="190" height="189" stroke="#000000" stroke-width="4.58333" stroke-miterlimit="8" fill="#C8DFF1"/><text font-family="Segoe UI,Segoe UI_MSFontService,sans-serif" font-weight="400" font-size="37" transform="matrix(1 0 0 1 2354.23 1521)">Fusion </text><text font-family="Segoe UI,Segoe UI_MSFontService,sans-serif" font-weight="400" font-size="37" transform="matrix(1 0 0 1 2339.04 1565)">Features</text><text font-family="Segoe UI,Segoe UI_MSFontService,sans-serif" font-weight="400" font-size="37" transform="matrix(1 0 0 1 2355.66 1609)">(</text><text font-family="Segoe UI,Segoe UI_MSFontService,sans-serif" font-weight="400" font-size="37" transform="matrix(1 0 0 1 2366.54 1609)">BBox</text><text font-family="Segoe UI,Segoe UI_MSFontService,sans-serif" font-weight="400" font-size="37" transform="matrix(1 0 0 1 2447.32 1609)">)</text><rect x="2540.5" y="1724.5" width="92.9998" height="191" stroke="#000000" stroke-width="4.58333" stroke-miterlimit="8" fill="#0B3041"/><text fill="#FFFFFF" font-family="Segoe UI,Segoe UI_MSFontService,sans-serif" font-weight="400" font-size="37" transform="matrix(1 0 0 1 2552.13 1834)">GAP</text><rect x="2180.5" y="1724.5" width="94.0002" height="191" stroke="#000000" stroke-width="4.58333" stroke-miterlimit="8" fill="#0B3041"/><text fill="#FFFFFF" font-family="Segoe UI,Segoe UI_MSFontService,sans-serif" font-weight="400" font-size="37" transform="matrix(1 0 0 1 2199.29 1812)">1*1</text><text fill="#FFFFFF" font-family="Segoe UI,Segoe UI_MSFontService,sans-serif" font-weight="400" font-size="37" transform="matrix(1 0 0 1 2185.54 1856)">Conv</text><rect x="2312.5" y="1725.5" width="190" height="189" stroke="#000000" stroke-width="4.58333" stroke-miterlimit="8" fill="#C8DFF1"/><text font-family="Segoe UI,Segoe UI_MSFontService,sans-serif" font-weight="400" font-size="37" transform="matrix(1 0 0 1 2354.23 1790)">Fusion </text><text font-family="Segoe UI,Segoe UI_MSFontService,sans-serif" font-weight="400" font-size="37" transform="matrix(1 0 0 1 2339.04 1834)">Features</text><text font-family="Segoe UI,Segoe UI_MSFontService,sans-serif" font-weight="400" font-size="37" transform="matrix(1 0 0 1 2358.82 1878)">(</text><text font-family="Segoe UI,Segoe UI_MSFontService,sans-serif" font-weight="400" font-size="37" transform="matrix(1 0 0 1 2369.7 1878)">Bas</text><text font-family="Segoe UI,Segoe UI_MSFontService,sans-serif" font-weight="400" font-size="37" transform="matrix(1 0 0 1 2425.28 1878)">e</text><text font-family="Segoe UI,Segoe UI_MSFontService,sans-serif" font-weight="400" font-size="37" transform="matrix(1 0 0 1 2444.18 1878)">)</text><rect x="2540.5" y="2000.5" width="92.9998" height="191" stroke="#000000" stroke-width="4.58333" stroke-miterlimit="8" fill="#0B3041"/><text fill="#FFFFFF" font-family="Segoe UI,Segoe UI_MSFontService,sans-serif" font-weight="400" font-size="37" transform="matrix(1 0 0 1 2552.13 2110)">GAP</text><rect x="2180.5" y="2000.5" width="94.0002" height="191" stroke="#000000" stroke-width="4.58333" stroke-miterlimit="8" fill="#0B3041"/><text fill="#FFFFFF" font-family="Segoe UI,Segoe UI_MSFontService,sans-serif" font-weight="400" font-size="37" transform="matrix(1 0 0 1 2199.29 2088)">1*1</text><text fill="#FFFFFF" font-family="Segoe UI,Segoe UI_MSFontService,sans-serif" font-weight="400" font-size="37" transform="matrix(1 0 0 1 2185.54 2132)">Conv</text><rect x="2312.5" y="2001.5" width="190" height="189" stroke="#000000" stroke-width="4.58333" stroke-miterlimit="8" fill="#C8DFF1"/><text font-family="Segoe UI,Segoe UI_MSFontService,sans-serif" font-weight="400" font-size="37" transform="matrix(1 0 0 1 2354.23 2066)">Fusion </text><text font-family="Segoe UI,Segoe UI_MSFontService,sans-serif" font-weight="400" font-size="37" transform="matrix(1 0 0 1 2339.04 2110)">Features</text><text font-family="Segoe UI,Segoe UI_MSFontService,sans-serif" font-weight="400" font-size="37" transform="matrix(1 0 0 1 2370.85 2154)">(</text><text font-family="Segoe UI,Segoe UI_MSFontService,sans-serif" font-weight="400" font-size="37" transform="matrix(1 0 0 1 2381.73 2154)">Ti</text><text font-family="Segoe UI,Segoe UI_MSFontService,sans-serif" font-weight="400" font-size="37" transform="matrix(1 0 0 1 2410.38 2154)">p</text><text font-family="Segoe UI,Segoe UI_MSFontService,sans-serif" font-weight="400" font-size="37" transform="matrix(1 0 0 1 2432.15 2154)">)</text><path d="M13.7593-1.02857 26.8894-0.916625 26.8699 1.37496 13.7397 1.26302ZM18.2545 9.32263 0 0 18.4108-9.01004Z" transform="matrix(-1 0 0 1 2179.88 1551)"/><path d="M13.75-1.14566 28.4964-1.14547 28.4964 1.14619 13.75 1.14601ZM18.3332 9.1669 0 0 18.3334-9.16643Z" transform="matrix(-1 0 0 1 2180.5 1820)"/><path d="M13.75-1.14566 27.9233-1.14547 27.9233 1.14619 13.75 1.14601ZM18.3332 9.1669 0 0 18.3335-9.16643Z" transform="matrix(-1 0 0 1 2179.92 2096)"/><path d="M2110 1631 2152.97 1631" stroke="#000000" stroke-width="2.29167" stroke-miterlimit="8" fill="none" fill-rule="evenodd"/><path d="M2110 1827 2153.54 1827" stroke="#000000" stroke-width="2.29167" stroke-miterlimit="8" fill="none" fill-rule="evenodd"/><path d="M2110 2022 2151.82 2022" stroke="#000000" stroke-width="2.29167" stroke-miterlimit="8" fill="none" fill-rule="evenodd"/><path d="M2152 1550 2152 1632.5" stroke="#000000" stroke-width="2.29167" stroke-miterlimit="8" fill="none" fill-rule="evenodd"/><path d="M2152 1818 2152 1825.45" stroke="#000000" stroke-width="2.29167" stroke-miterlimit="8" fill="none" fill-rule="evenodd"/><path d="M2152 2021 2152 2096.59" stroke="#000000" stroke-width="2.29167" stroke-miterlimit="8" fill="none" fill-rule="evenodd"/><path d="M2274 1549.85 2298.74 1549.85 2298.74 1552.15 2274 1552.15ZM2294.16 1541.83 2312.49 1551 2294.16 1560.17Z"/><path d="M1.07426e-05-1.14583 24.7439-1.1456 24.7439 1.14607-1.07426e-05 1.14583ZM20.1606-9.16648 38.4939 0.000360892 20.1604 9.16686Z" transform="matrix(1 0 0 -1 2502 1551)"/><path d="M2633 1549.85 2657.74 1549.85 2657.74 1552.15 2633 1552.15ZM2653.16 1541.83 2671.49 1551 2653.16 1560.17Z"/><path d="M2274 1818.85 2298.74 1818.85 2298.74 1821.15 2274 1821.15ZM2294.16 1810.83 2312.49 1820 2294.16 1829.17Z"/><path d="M1.07426e-05-1.14583 24.7439-1.1456 24.7439 1.14607-1.07426e-05 1.14583ZM20.1606-9.16648 38.4939 0.000360892 20.1604 9.16686Z" transform="matrix(1 0 0 -1 2502 1820)"/><path d="M2633 1818.85 2657.74 1818.85 2657.74 1821.15 2633 1821.15ZM2653.16 1810.83 2671.49 1820 2653.16 1829.17Z"/><path d="M2274 2094.85 2298.74 2094.85 2298.74 2097.15 2274 2097.15ZM2294.16 2086.83 2312.49 2096 2294.16 2105.17Z"/><path d="M1.07426e-05-1.14583 24.7439-1.1456 24.7439 1.14607-1.07426e-05 1.14583ZM20.1606-9.16648 38.4939 0.000360892 20.1604 9.16686Z" transform="matrix(1 0 0 -1 2502 2096)"/><path d="M2633 2094.85 2657.74 2094.85 2657.74 2097.15 2633 2097.15ZM2653.16 2086.83 2671.49 2096 2653.16 2105.17Z"/><text font-family="Segoe UI,Segoe UI_MSFontService,sans-serif" font-weight="400" font-size="32" transform="matrix(1 0 0 1 1919.42 2145)">[B</text><text font-family="Segoe UI,Segoe UI_MSFontService,sans-serif" font-weight="400" font-size="32" transform="matrix(1 0 0 1 1947.49 2145)">,</text><text font-family="Segoe UI,Segoe UI_MSFontService,sans-serif" font-weight="400" font-size="32" transform="matrix(1 0 0 1 1954.37 2145)">102</text><text font-family="Segoe UI,Segoe UI_MSFontService,sans-serif" font-weight="400" font-size="32" transform="matrix(1 0 0 1 2005.93 2145)">4</text><text font-family="Segoe UI,Segoe UI_MSFontService,sans-serif" font-weight="400" font-size="32" transform="matrix(1 0 0 1 2023.12 2145)">,7,7</text><text font-family="Segoe UI,Segoe UI_MSFontService,sans-serif" font-weight="400" font-size="32" transform="matrix(1 0 0 1 2071.24 2145)">]*3</text></g></svg>